<svg xmlns="http://www.w3.org/2000/svg" width="512" height="512" viewBox="0 0 512 512">
  <rect width="512" height="512" rx="96" fill="#111111"/>
  <g transform="translate(96, 76)">
    <!-- M dots logo pattern: 5 cols x 6 rows, unit=54, dot radius=21 -->
    <!-- Col 0 -->
    <circle cx="21" cy="21" r="21" fill="white"/>
    <circle cx="21" cy="75" r="21" fill="white"/>
    <circle cx="21" cy="129" r="21" fill="white"/>
    <circle cx="21" cy="183" r="21" fill="white"/>
    <circle cx="21" cy="237" r="21" fill="white"/>
    <circle cx="21" cy="291" r="21" fill="white"/>
    <!-- Col 1 -->
    <circle cx="75" cy="21" r="21" fill="white"/>
    <circle cx="75" cy="75" r="21" fill="white"/>
    <circle cx="75" cy="129" r="21" fill="white"/>
    <!-- Col 2 -->
    <circle cx="129" cy="129" r="21" fill="white"/>
    <circle cx="129" cy="183" r="21" fill="white"/>
    <circle cx="129" cy="237" r="21" fill="white"/>
    <!-- Col 3 -->
    <circle cx="183" cy="75" r="21" fill="white"/>
    <!-- Col 4 -->
    <circle cx="237" cy="21" r="21" fill="white"/>
    <circle cx="237" cy="75" r="21" fill="white"/>
    <circle cx="237" cy="129" r="21" fill="white"/>
    <circle cx="237" cy="183" r="21" fill="white"/>
    <circle cx="237" cy="237" r="21" fill="white"/>
    <circle cx="237" cy="291" r="21" fill="white"/>
  </g>
</svg>
